<svg width="92" height="45" viewBox="0 0 92 45" fill="none" xmlns="http://www.w3.org/2000/svg">
<path d="M44.7812 31.625C44.7812 33.2292 44.5729 34.6771 44.1562 35.9688C43.7604 37.2396 43.2292 38.3646 42.5625 39.3438C41.8958 40.3229 41.1146 41.1562 40.2188 41.8438C39.3229 42.5312 38.3958 43.0938 37.4375 43.5312C36.4792 43.9688 35.5 44.2917 34.5 44.5C33.5208 44.7083 32.5938 44.8125 31.7188 44.8125H0.375V36.6875H31.7188C33.2812 36.6875 34.4896 36.2292 35.3438 35.3125C36.2188 34.3958 36.6562 33.1667 36.6562 31.625C36.6562 30.875 36.5417 30.1875 36.3125 29.5625C36.0833 28.9375 35.75 28.3958 35.3125 27.9375C34.8958 27.4792 34.375 27.125 33.75 26.875C33.1458 26.625 32.4688 26.5 31.7188 26.5H13.0312C11.7188 26.5 10.3021 26.2708 8.78125 25.8125C7.26042 25.3333 5.84375 24.5729 4.53125 23.5312C3.23958 22.4896 2.15625 21.125 1.28125 19.4375C0.427083 17.75 0 15.6875 0 13.25C0 10.8125 0.427083 8.76042 1.28125 7.09375C2.15625 5.40625 3.23958 4.04167 4.53125 3C5.84375 1.9375 7.26042 1.17708 8.78125 0.71875C10.3021 0.239583 11.7188 0 13.0312 0H40.6875V8.125H13.0312C11.4896 8.125 10.2812 8.59375 9.40625 9.53125C8.55208 10.4688 8.125 11.7083 8.125 13.25C8.125 14.8125 8.55208 16.0521 9.40625 16.9688C10.2812 17.8646 11.4896 18.3125 13.0312 18.3125H31.7188H31.7812C32.6562 18.3333 33.5833 18.4583 34.5625 18.6875C35.5417 18.8958 36.5104 19.2292 37.4688 19.6875C38.4479 20.1458 39.375 20.7292 40.25 21.4375C41.125 22.125 41.8958 22.9583 42.5625 23.9375C43.25 24.9167 43.7917 26.0417 44.1875 27.3125C44.5833 28.5833 44.7812 30.0208 44.7812 31.625ZM91.5312 8.125H73.625V44.8125H65.5V8.125H47.5625V0H91.5312V8.125Z" fill="white"/>
</svg>
